<svg width="25" height="25" viewBox="0 0 25 25" fill="none" xmlns="http://www.w3.org/2000/svg">
<g filter="url(#filter0_dd_64_2)">
<g clip-path="url(#clip0_64_2)">
<path fill-rule="evenodd" clip-rule="evenodd" d="M8.05514 8.13226C8.04572 5.8634 9.8773 4.01688 12.1462 4.00789C14.415 3.99889 16.2619 5.83084 16.2713 8.0997C16.2807 10.3686 14.4491 12.215 12.1803 12.224C9.91141 12.233 8.06456 10.4011 8.05514 8.13226ZM12.1743 10.7826C10.7015 10.7885 9.50268 9.5993 9.49656 8.12656C9.49045 6.65378 10.6794 5.45516 12.1522 5.44932C13.6249 5.44349 14.8238 6.63264 14.8299 8.10542C14.836 9.57816 13.647 10.7768 12.1743 10.7826Z" fill="white"/>
<path d="M16.4199 4.78849C16.9501 4.78639 17.3781 4.35491 17.3759 3.82472C17.3737 3.29453 16.9421 2.86641 16.4119 2.86851C15.8817 2.87061 15.4537 3.30214 15.4559 3.83233C15.4581 4.36252 15.8897 4.79059 16.4199 4.78849Z" fill="white"/>
<path fill-rule="evenodd" clip-rule="evenodd" d="M12.1301 0.115995C9.95741 0.124607 9.68502 0.134903 8.83189 0.17721C7.98056 0.219418 7.39957 0.356976 6.89155 0.556761C6.36631 0.763266 5.92132 1.03858 5.4784 1.48508C5.03552 1.93162 4.76382 2.37884 4.56159 2.90571C4.36592 3.41535 4.23309 3.99743 4.1978 4.84908C4.16241 5.70252 4.15432 5.97498 4.16334 8.14766C4.17236 10.3203 4.18271 10.5927 4.22519 11.4458C4.26755 12.2972 4.40521 12.8781 4.60511 13.3862C4.8117 13.9115 5.08711 14.3565 5.53368 14.7996C5.98029 15.2425 6.42756 15.5143 6.95449 15.7166C7.46416 15.9124 8.04627 16.0453 8.89792 16.0808C9.75138 16.1163 10.0238 16.1245 12.1965 16.1159C14.3692 16.1072 14.6415 16.097 15.4947 16.0547C16.346 16.0124 16.9269 15.8749 17.435 15.6751C17.9603 15.4686 18.4052 15.1932 18.8482 14.7468C19.291 14.3002 19.5628 13.853 19.765 13.3261C19.9607 12.8165 20.0934 12.2344 20.1287 11.3828C20.1642 10.5293 20.1722 10.2569 20.1632 8.08424C20.1542 5.91156 20.1439 5.63917 20.1013 4.78605C20.059 3.9347 19.9214 3.35369 19.7215 2.84562C19.5149 2.32037 19.2394 1.87532 18.7929 1.43231C18.3462 0.989326 17.899 0.717553 17.3721 0.515218C16.8623 0.319468 16.2803 0.18652 15.4286 0.151062C14.5752 0.115519 14.3027 0.107383 12.1301 0.115995ZM12.136 1.55742C14.2721 1.54896 14.5252 1.55611 15.3689 1.59125C16.1491 1.62373 16.5732 1.75238 16.8555 1.86081C17.2295 2.00446 17.4968 2.17676 17.7778 2.45561C18.059 2.73442 18.2334 3.00023 18.3801 3.37308C18.4908 3.65453 18.6229 4.07761 18.6617 4.85746C18.7037 5.70087 18.713 5.95386 18.7218 8.08995C18.7307 10.226 18.7235 10.479 18.6885 11.3228C18.6562 12.1029 18.5276 12.527 18.4193 12.8094C18.2757 13.1833 18.1035 13.4505 17.8246 13.7315C17.5459 14.0126 17.2801 14.187 16.9073 14.3337C16.6259 14.4443 16.2028 14.5763 15.423 14.615C14.5798 14.6568 14.3267 14.666 12.1905 14.6745C10.0543 14.6829 9.80127 14.6757 8.95764 14.6406C8.1775 14.6081 7.75338 14.4795 7.47104 14.3711C7.09703 14.2274 6.8298 14.0551 6.5487 13.7762C6.26763 13.4974 6.09313 13.2316 5.94647 12.8588C5.83574 12.5773 5.70364 12.1543 5.66485 11.3744C5.62283 10.531 5.61364 10.278 5.60477 8.14194C5.5959 6.00585 5.60299 5.7528 5.63801 4.90909C5.67032 4.12895 5.7989 3.70484 5.90729 3.42252C6.05085 3.04851 6.22311 2.78134 6.50188 2.5003C6.78066 2.21924 7.04645 2.04482 7.41925 1.89821C7.70069 1.78755 8.12372 1.65554 8.90357 1.61688C9.74697 1.57505 9.99999 1.56589 12.136 1.55742Z" fill="white"/>
</g>
</g>
<defs>
<filter id="filter0_dd_64_2" x="0.130127" y="0.0842285" width="24.0664" height="24.0632" filterUnits="userSpaceOnUse" color-interpolation-filters="sRGB">
<feFlood flood-opacity="0" result="BackgroundImageFix"/>
<feColorMatrix in="SourceAlpha" type="matrix" values="0 0 0 0 0 0 0 0 0 0 0 0 0 0 0 0 0 0 127 0" result="hardAlpha"/>
<feOffset dy="4"/>
<feGaussianBlur stdDeviation="2"/>
<feComposite in2="hardAlpha" operator="out"/>
<feColorMatrix type="matrix" values="0 0 0 0 0 0 0 0 0 0 0 0 0 0 0 0 0 0 0.25 0"/>
<feBlend mode="normal" in2="BackgroundImageFix" result="effect1_dropShadow_64_2"/>
<feColorMatrix in="SourceAlpha" type="matrix" values="0 0 0 0 0 0 0 0 0 0 0 0 0 0 0 0 0 0 127 0" result="hardAlpha"/>
<feOffset dy="4"/>
<feGaussianBlur stdDeviation="2"/>
<feComposite in2="hardAlpha" operator="out"/>
<feColorMatrix type="matrix" values="0 0 0 0 0 0 0 0 0 0 0 0 0 0 0 0 0 0 0.25 0"/>
<feBlend mode="normal" in2="effect1_dropShadow_64_2" result="effect2_dropShadow_64_2"/>
<feBlend mode="normal" in="SourceGraphic" in2="effect2_dropShadow_64_2" result="shape"/>
</filter>
<clipPath id="clip0_64_2">
<rect width="16" height="16" fill="white" transform="matrix(0.999992 -0.00396378 0.00415187 0.999991 4.13013 0.147705)"/>
</clipPath>
</defs>
</svg>
