<?xml version="1.0" encoding="UTF-8" standalone="no"?>
<svg
   width="17"
   height="14"
   viewBox="0 0 17 14"
   fill="none"
   version="1.1"
   id="svg5650"
   sodipodi:docname="twitter.svg"
   inkscape:version="1.2.1 (9c6d41e410, 2022-07-14)"
   xmlns:inkscape="http://www.inkscape.org/namespaces/inkscape"
   xmlns:sodipodi="http://sodipodi.sourceforge.net/DTD/sodipodi-0.dtd"
   xmlns="http://www.w3.org/2000/svg"
   xmlns:svg="http://www.w3.org/2000/svg">
  <sodipodi:namedview
     id="namedview5652"
     pagecolor="#767676"
     bordercolor="#000000"
     borderopacity="0.25"
     inkscape:showpageshadow="2"
     inkscape:pageopacity="0"
     inkscape:pagecheckerboard="0"
     inkscape:deskcolor="#d1d1d1"
     showgrid="false"
     inkscape:zoom="20.430335"
     inkscape:cx="-8.8349015"
     inkscape:cy="3.8178522"
     inkscape:window-width="1920"
     inkscape:window-height="974"
     inkscape:window-x="2389"
     inkscape:window-y="-11"
     inkscape:window-maximized="1"
     inkscape:current-layer="svg5650" />
  <g
     clip-path="url(#clip0_62_441)"
     id="g5643"
     style="fill:#000000;fill-opacity:0.726582"
     transform="translate(0.88104281,0.83209599)">
    <path
       fill-rule="evenodd"
       clip-rule="evenodd"
       d="M 16.1366,1.74604 C 15.5498,2.0094 14.9176,2.18844 14.254,2.26994 14.9303,1.86163 15.4479,1.21637 15.6898,0.449211 15.0566,0.82731 14.3562,1.10333 13.6074,1.25278 13.0074,0.617591 12.1521,0.222856 11.2074,0.226601 9.39578,0.233781 7.93215,1.70907 7.93968,3.52127 7.94074,3.77855 7.96995,4.02819 8.0273,4.26835 5.29857,4.14207 2.8749,2.8465 1.24666,0.865149 0.966003,1.35265 0.806816,1.91761 0.809311,2.51853 0.814036,3.65655 1.39765,4.65895 2.28099,5.24418 1.74375,5.23035 1.236,5.08306 0.791719,4.84069 l 1.67e-4,0.04038 C 0.79849,6.47167 1.93564,7.79393 3.43949,8.08844 3.16465,8.16652 2.87462,8.20617 2.57503,8.20736 2.36374,8.2082 2.15705,8.1893 1.95685,8.15159 2.38018,9.45321 3.59559,10.3977 5.03255,10.4174 3.91302,11.3025 2.499,11.833 0.961646,11.8391 0.696813,11.8402 0.434734,11.8262 0.178229,11.7972 1.63492,12.7209 3.36328,13.2578 5.21618,13.2505 11.2548,13.2265 14.535,8.21347 14.517,3.87642 14.5164,3.7337 14.513,3.59098 14.5068,3.45111 15.1463,2.98566 15.7008,2.40599 16.1366,1.74604 Z"
       fill="white"
       id="path5641"
       style="fill:#000000;fill-opacity:0.726582" />
  </g>
  <defs
     id="defs5648">
    <clipPath
       id="clip0_62_441">
      <rect
         width="16"
         height="13"
         fill="white"
         transform="matrix(0.999992 -0.00396378 0.00415187 0.999991 0.130371 0.270508)"
         id="rect5645" />
    </clipPath>
  </defs>
  <g
     clip-path="url(#clip0_62_441)"
     id="g6862"
     transform="translate(0.35347018,0.3348267)">
    <path
       fill-rule="evenodd"
       clip-rule="evenodd"
       d="M 16.1366,1.74604 C 15.5498,2.0094 14.9176,2.18844 14.254,2.26994 14.9303,1.86163 15.4479,1.21637 15.6898,0.449211 15.0566,0.82731 14.3562,1.10333 13.6074,1.25278 13.0074,0.617591 12.1521,0.222856 11.2074,0.226601 9.39578,0.233781 7.93215,1.70907 7.93968,3.52127 7.94074,3.77855 7.96995,4.02819 8.0273,4.26835 5.29857,4.14207 2.8749,2.8465 1.24666,0.865149 0.966003,1.35265 0.806816,1.91761 0.809311,2.51853 0.814036,3.65655 1.39765,4.65895 2.28099,5.24418 1.74375,5.23035 1.236,5.08306 0.791719,4.84069 l 1.67e-4,0.04038 C 0.79849,6.47167 1.93564,7.79393 3.43949,8.08844 3.16465,8.16652 2.87462,8.20617 2.57503,8.20736 2.36374,8.2082 2.15705,8.1893 1.95685,8.15159 2.38018,9.45321 3.59559,10.3977 5.03255,10.4174 3.91302,11.3025 2.499,11.833 0.961646,11.8391 0.696813,11.8402 0.434734,11.8262 0.178229,11.7972 1.63492,12.7209 3.36328,13.2578 5.21618,13.2505 11.2548,13.2265 14.535,8.21347 14.517,3.87642 14.5164,3.7337 14.513,3.59098 14.5068,3.45111 15.1463,2.98566 15.7008,2.40599 16.1366,1.74604 Z"
       fill="#ffffff"
       id="path6860" />
  </g>
</svg>
